<mxfile host="Electron" modified="2023-05-27T15:41:50.581Z" agent="Mozilla/5.0 (Macintosh; Intel Mac OS X 10_15_7) AppleWebKit/537.36 (KHTML, like Gecko) draw.io/21.2.1 Chrome/112.0.5615.87 Electron/24.1.2 Safari/537.36" etag="7OO15OZt_MCdLM3w_6kT" version="21.2.1" type="device">
  <diagram name="Page-1" id="H1nZVYqxkzLZFgEqRADx">
    <mxGraphModel dx="630" dy="4280" grid="1" gridSize="10" guides="1" tooltips="1" connect="1" arrows="1" fold="1" page="1" pageScale="1" pageWidth="850" pageHeight="1100" math="0" shadow="0">
      <root>
        <mxCell id="0" />
        <mxCell id="1" parent="0" />
        <mxCell id="AsBp8XiL8Dx4Y6rQVwFH-3921" value="R, W: 127, H: 111, ORDER: 15, GC: {48, 36, 43, 12, 9, 15, 3, 6, 8, 35, 63, 29, 2, 33, 31} " style="text;html=1;strokeColor=none;fillColor=none;align=center;verticalAlign=middle;whiteSpace=wrap;rounded=0;flipV=1;" parent="1" vertex="1">
          <mxGeometry x="2690" width="1270" height="30" as="geometry" />
        </mxCell>
        <mxCell id="AsBp8XiL8Dx4Y6rQVwFH-3953" value="R, W: 127, H: 97, ORDER: 15, GC: {43, 32, 52, 11, 21, 2, 5, 45, 54, 16, 4, 1, 3, 12, 28} " style="text;html=1;strokeColor=none;fillColor=none;align=center;verticalAlign=middle;whiteSpace=wrap;rounded=0;flipV=1;" parent="1" vertex="1">
          <mxGeometry x="2690" y="1210" width="1270" height="30" as="geometry" />
        </mxCell>
        <mxCell id="AsBp8XiL8Dx4Y6rQVwFH-11129" value="R, W: 127, H: 117, ORDER: 19, GC: {45, 18, 22, 14, 4, 16, 26, 6, 10, 11, 13, 1, 21, 12, 36, 2, 19, 72, 55} " style="text;html=1;strokeColor=none;fillColor=none;align=center;verticalAlign=middle;whiteSpace=wrap;rounded=0;flipV=1;" parent="1" vertex="1">
          <mxGeometry x="2690" y="2300" width="1270" height="30" as="geometry" />
        </mxCell>
        <mxCell id="j0JYbWiJyztxpEZ2TO5e-1" value="" style="group;flipV=1;" vertex="1" connectable="0" parent="1">
          <mxGeometry x="2690" y="50" width="1270" height="1110" as="geometry" />
        </mxCell>
        <mxCell id="761dnnyQ54j-Cl0NHfQN-3922" value="48" style="rounded=0;whiteSpace=wrap;html=1;" parent="j0JYbWiJyztxpEZ2TO5e-1" vertex="1">
          <mxGeometry y="630" width="480" height="480" as="geometry" />
        </mxCell>
        <mxCell id="761dnnyQ54j-Cl0NHfQN-3923" value="36" style="rounded=0;whiteSpace=wrap;html=1;" parent="j0JYbWiJyztxpEZ2TO5e-1" vertex="1">
          <mxGeometry x="480" y="750" width="360" height="360" as="geometry" />
        </mxCell>
        <mxCell id="761dnnyQ54j-Cl0NHfQN-3924" value="43" style="rounded=0;whiteSpace=wrap;html=1;" parent="j0JYbWiJyztxpEZ2TO5e-1" vertex="1">
          <mxGeometry x="840" y="680" width="430" height="430" as="geometry" />
        </mxCell>
        <mxCell id="761dnnyQ54j-Cl0NHfQN-3925" value="12" style="rounded=0;whiteSpace=wrap;html=1;" parent="j0JYbWiJyztxpEZ2TO5e-1" vertex="1">
          <mxGeometry x="480" y="630" width="120" height="120" as="geometry" />
        </mxCell>
        <mxCell id="761dnnyQ54j-Cl0NHfQN-3926" value="9" style="rounded=0;whiteSpace=wrap;html=1;" parent="j0JYbWiJyztxpEZ2TO5e-1" vertex="1">
          <mxGeometry x="600" y="660" width="90" height="90" as="geometry" />
        </mxCell>
        <mxCell id="761dnnyQ54j-Cl0NHfQN-3927" value="15" style="rounded=0;whiteSpace=wrap;html=1;" parent="j0JYbWiJyztxpEZ2TO5e-1" vertex="1">
          <mxGeometry x="690" y="600" width="150" height="150" as="geometry" />
        </mxCell>
        <mxCell id="761dnnyQ54j-Cl0NHfQN-3928" value="3" style="rounded=0;whiteSpace=wrap;html=1;" parent="j0JYbWiJyztxpEZ2TO5e-1" vertex="1">
          <mxGeometry x="600" y="630" width="30" height="30" as="geometry" />
        </mxCell>
        <mxCell id="761dnnyQ54j-Cl0NHfQN-3929" value="6" style="rounded=0;whiteSpace=wrap;html=1;" parent="j0JYbWiJyztxpEZ2TO5e-1" vertex="1">
          <mxGeometry x="630" y="600" width="60" height="60" as="geometry" />
        </mxCell>
        <mxCell id="761dnnyQ54j-Cl0NHfQN-3930" value="8" style="rounded=0;whiteSpace=wrap;html=1;" parent="j0JYbWiJyztxpEZ2TO5e-1" vertex="1">
          <mxGeometry x="840" y="600" width="80" height="80" as="geometry" />
        </mxCell>
        <mxCell id="761dnnyQ54j-Cl0NHfQN-3931" value="35" style="rounded=0;whiteSpace=wrap;html=1;" parent="j0JYbWiJyztxpEZ2TO5e-1" vertex="1">
          <mxGeometry x="920" y="330" width="350" height="350" as="geometry" />
        </mxCell>
        <mxCell id="761dnnyQ54j-Cl0NHfQN-3932" value="63" style="rounded=0;whiteSpace=wrap;html=1;" parent="j0JYbWiJyztxpEZ2TO5e-1" vertex="1">
          <mxGeometry width="630" height="630" as="geometry" />
        </mxCell>
        <mxCell id="761dnnyQ54j-Cl0NHfQN-3933" value="29" style="rounded=0;whiteSpace=wrap;html=1;" parent="j0JYbWiJyztxpEZ2TO5e-1" vertex="1">
          <mxGeometry x="630" y="310" width="290" height="290" as="geometry" />
        </mxCell>
        <mxCell id="761dnnyQ54j-Cl0NHfQN-3934" value="2" style="rounded=0;whiteSpace=wrap;html=1;" parent="j0JYbWiJyztxpEZ2TO5e-1" vertex="1">
          <mxGeometry x="920" y="310" width="20" height="20" as="geometry" />
        </mxCell>
        <mxCell id="761dnnyQ54j-Cl0NHfQN-3935" value="33" style="rounded=0;whiteSpace=wrap;html=1;" parent="j0JYbWiJyztxpEZ2TO5e-1" vertex="1">
          <mxGeometry x="940" width="330" height="330" as="geometry" />
        </mxCell>
        <mxCell id="761dnnyQ54j-Cl0NHfQN-3936" value="31" style="rounded=0;whiteSpace=wrap;html=1;" parent="j0JYbWiJyztxpEZ2TO5e-1" vertex="1">
          <mxGeometry x="630" width="310" height="310" as="geometry" />
        </mxCell>
        <mxCell id="j0JYbWiJyztxpEZ2TO5e-2" value="" style="group;flipV=1;" vertex="1" connectable="0" parent="1">
          <mxGeometry x="2690" y="1260" width="1270" height="970" as="geometry" />
        </mxCell>
        <mxCell id="761dnnyQ54j-Cl0NHfQN-3954" value="43" style="rounded=0;whiteSpace=wrap;html=1;" parent="j0JYbWiJyztxpEZ2TO5e-2" vertex="1">
          <mxGeometry y="540" width="430" height="430" as="geometry" />
        </mxCell>
        <mxCell id="761dnnyQ54j-Cl0NHfQN-3955" value="32" style="rounded=0;whiteSpace=wrap;html=1;" parent="j0JYbWiJyztxpEZ2TO5e-2" vertex="1">
          <mxGeometry x="430" y="650" width="320" height="320" as="geometry" />
        </mxCell>
        <mxCell id="761dnnyQ54j-Cl0NHfQN-3956" value="52" style="rounded=0;whiteSpace=wrap;html=1;" parent="j0JYbWiJyztxpEZ2TO5e-2" vertex="1">
          <mxGeometry x="750" y="450" width="520" height="520" as="geometry" />
        </mxCell>
        <mxCell id="761dnnyQ54j-Cl0NHfQN-3957" value="11" style="rounded=0;whiteSpace=wrap;html=1;" parent="j0JYbWiJyztxpEZ2TO5e-2" vertex="1">
          <mxGeometry x="430" y="540" width="110" height="110" as="geometry" />
        </mxCell>
        <mxCell id="761dnnyQ54j-Cl0NHfQN-3958" value="21" style="rounded=0;whiteSpace=wrap;html=1;" parent="j0JYbWiJyztxpEZ2TO5e-2" vertex="1">
          <mxGeometry x="540" y="440" width="210" height="210" as="geometry" />
        </mxCell>
        <mxCell id="761dnnyQ54j-Cl0NHfQN-3959" value="2" style="rounded=0;whiteSpace=wrap;html=1;" parent="j0JYbWiJyztxpEZ2TO5e-2" vertex="1">
          <mxGeometry x="750" y="430" width="20" height="20" as="geometry" />
        </mxCell>
        <mxCell id="761dnnyQ54j-Cl0NHfQN-3960" value="5" style="rounded=0;whiteSpace=wrap;html=1;" parent="j0JYbWiJyztxpEZ2TO5e-2" vertex="1">
          <mxGeometry x="770" y="400" width="50" height="50" as="geometry" />
        </mxCell>
        <mxCell id="761dnnyQ54j-Cl0NHfQN-3961" value="45" style="rounded=0;whiteSpace=wrap;html=1;" parent="j0JYbWiJyztxpEZ2TO5e-2" vertex="1">
          <mxGeometry x="820" width="450" height="450" as="geometry" />
        </mxCell>
        <mxCell id="761dnnyQ54j-Cl0NHfQN-3962" value="54" style="rounded=0;whiteSpace=wrap;html=1;" parent="j0JYbWiJyztxpEZ2TO5e-2" vertex="1">
          <mxGeometry width="540" height="540" as="geometry" />
        </mxCell>
        <mxCell id="761dnnyQ54j-Cl0NHfQN-3963" value="16" style="rounded=0;whiteSpace=wrap;html=1;" parent="j0JYbWiJyztxpEZ2TO5e-2" vertex="1">
          <mxGeometry x="540" y="280" width="160" height="160" as="geometry" />
        </mxCell>
        <mxCell id="761dnnyQ54j-Cl0NHfQN-3964" value="4" style="rounded=0;whiteSpace=wrap;html=1;" parent="j0JYbWiJyztxpEZ2TO5e-2" vertex="1">
          <mxGeometry x="700" y="400" width="40" height="40" as="geometry" />
        </mxCell>
        <mxCell id="761dnnyQ54j-Cl0NHfQN-3965" value="1" style="rounded=0;whiteSpace=wrap;html=1;" parent="j0JYbWiJyztxpEZ2TO5e-2" vertex="1">
          <mxGeometry x="740" y="430" width="10" height="10" as="geometry" />
        </mxCell>
        <mxCell id="761dnnyQ54j-Cl0NHfQN-3966" value="3" style="rounded=0;whiteSpace=wrap;html=1;" parent="j0JYbWiJyztxpEZ2TO5e-2" vertex="1">
          <mxGeometry x="740" y="400" width="30" height="30" as="geometry" />
        </mxCell>
        <mxCell id="761dnnyQ54j-Cl0NHfQN-3967" value="12" style="rounded=0;whiteSpace=wrap;html=1;" parent="j0JYbWiJyztxpEZ2TO5e-2" vertex="1">
          <mxGeometry x="700" y="280" width="120" height="120" as="geometry" />
        </mxCell>
        <mxCell id="761dnnyQ54j-Cl0NHfQN-3968" value="28" style="rounded=0;whiteSpace=wrap;html=1;" parent="j0JYbWiJyztxpEZ2TO5e-2" vertex="1">
          <mxGeometry x="540" width="280" height="280" as="geometry" />
        </mxCell>
        <mxCell id="j0JYbWiJyztxpEZ2TO5e-3" value="" style="group;flipV=1;" vertex="1" connectable="0" parent="1">
          <mxGeometry x="2690" y="2350" width="1270" height="1170" as="geometry" />
        </mxCell>
        <mxCell id="761dnnyQ54j-Cl0NHfQN-11130" value="45" style="rounded=0;whiteSpace=wrap;html=1;" parent="j0JYbWiJyztxpEZ2TO5e-3" vertex="1">
          <mxGeometry y="720" width="450" height="450" as="geometry" />
        </mxCell>
        <mxCell id="761dnnyQ54j-Cl0NHfQN-11131" value="18" style="rounded=0;whiteSpace=wrap;html=1;" parent="j0JYbWiJyztxpEZ2TO5e-3" vertex="1">
          <mxGeometry x="450" y="990" width="180" height="180" as="geometry" />
        </mxCell>
        <mxCell id="761dnnyQ54j-Cl0NHfQN-11132" value="22" style="rounded=0;whiteSpace=wrap;html=1;" parent="j0JYbWiJyztxpEZ2TO5e-3" vertex="1">
          <mxGeometry x="630" y="950" width="220" height="220" as="geometry" />
        </mxCell>
        <mxCell id="761dnnyQ54j-Cl0NHfQN-11133" value="14" style="rounded=0;whiteSpace=wrap;html=1;" parent="j0JYbWiJyztxpEZ2TO5e-3" vertex="1">
          <mxGeometry x="450" y="850" width="140" height="140" as="geometry" />
        </mxCell>
        <mxCell id="761dnnyQ54j-Cl0NHfQN-11134" value="4" style="rounded=0;whiteSpace=wrap;html=1;" parent="j0JYbWiJyztxpEZ2TO5e-3" vertex="1">
          <mxGeometry x="590" y="950" width="40" height="40" as="geometry" />
        </mxCell>
        <mxCell id="761dnnyQ54j-Cl0NHfQN-11135" value="16" style="rounded=0;whiteSpace=wrap;html=1;" parent="j0JYbWiJyztxpEZ2TO5e-3" vertex="1">
          <mxGeometry x="850" y="1010" width="160" height="160" as="geometry" />
        </mxCell>
        <mxCell id="761dnnyQ54j-Cl0NHfQN-11136" value="26" style="rounded=0;whiteSpace=wrap;html=1;" parent="j0JYbWiJyztxpEZ2TO5e-3" vertex="1">
          <mxGeometry x="1010" y="910" width="260" height="260" as="geometry" />
        </mxCell>
        <mxCell id="761dnnyQ54j-Cl0NHfQN-11137" value="6" style="rounded=0;whiteSpace=wrap;html=1;" parent="j0JYbWiJyztxpEZ2TO5e-3" vertex="1">
          <mxGeometry x="850" y="950" width="60" height="60" as="geometry" />
        </mxCell>
        <mxCell id="761dnnyQ54j-Cl0NHfQN-11138" value="10" style="rounded=0;whiteSpace=wrap;html=1;" parent="j0JYbWiJyztxpEZ2TO5e-3" vertex="1">
          <mxGeometry x="910" y="910" width="100" height="100" as="geometry" />
        </mxCell>
        <mxCell id="761dnnyQ54j-Cl0NHfQN-11139" value="11" style="rounded=0;whiteSpace=wrap;html=1;" parent="j0JYbWiJyztxpEZ2TO5e-3" vertex="1">
          <mxGeometry x="590" y="840" width="110" height="110" as="geometry" />
        </mxCell>
        <mxCell id="761dnnyQ54j-Cl0NHfQN-11140" value="13" style="rounded=0;whiteSpace=wrap;html=1;" parent="j0JYbWiJyztxpEZ2TO5e-3" vertex="1">
          <mxGeometry x="450" y="720" width="130" height="130" as="geometry" />
        </mxCell>
        <mxCell id="761dnnyQ54j-Cl0NHfQN-11141" value="1" style="rounded=0;whiteSpace=wrap;html=1;" parent="j0JYbWiJyztxpEZ2TO5e-3" vertex="1">
          <mxGeometry x="580" y="840" width="10" height="10" as="geometry" />
        </mxCell>
        <mxCell id="761dnnyQ54j-Cl0NHfQN-11142" value="21" style="rounded=0;whiteSpace=wrap;html=1;" parent="j0JYbWiJyztxpEZ2TO5e-3" vertex="1">
          <mxGeometry x="700" y="740" width="210" height="210" as="geometry" />
        </mxCell>
        <mxCell id="761dnnyQ54j-Cl0NHfQN-11143" value="12" style="rounded=0;whiteSpace=wrap;html=1;" parent="j0JYbWiJyztxpEZ2TO5e-3" vertex="1">
          <mxGeometry x="580" y="720" width="120" height="120" as="geometry" />
        </mxCell>
        <mxCell id="761dnnyQ54j-Cl0NHfQN-11144" value="36" style="rounded=0;whiteSpace=wrap;html=1;" parent="j0JYbWiJyztxpEZ2TO5e-3" vertex="1">
          <mxGeometry x="910" y="550" width="360" height="360" as="geometry" />
        </mxCell>
        <mxCell id="761dnnyQ54j-Cl0NHfQN-11145" value="2" style="rounded=0;whiteSpace=wrap;html=1;" parent="j0JYbWiJyztxpEZ2TO5e-3" vertex="1">
          <mxGeometry x="700" y="720" width="20" height="20" as="geometry" />
        </mxCell>
        <mxCell id="761dnnyQ54j-Cl0NHfQN-11146" value="19" style="rounded=0;whiteSpace=wrap;html=1;" parent="j0JYbWiJyztxpEZ2TO5e-3" vertex="1">
          <mxGeometry x="720" y="550" width="190" height="190" as="geometry" />
        </mxCell>
        <mxCell id="761dnnyQ54j-Cl0NHfQN-11147" value="72" style="rounded=0;whiteSpace=wrap;html=1;" parent="j0JYbWiJyztxpEZ2TO5e-3" vertex="1">
          <mxGeometry width="720" height="720" as="geometry" />
        </mxCell>
        <mxCell id="761dnnyQ54j-Cl0NHfQN-11148" value="55" style="rounded=0;whiteSpace=wrap;html=1;" parent="j0JYbWiJyztxpEZ2TO5e-3" vertex="1">
          <mxGeometry x="720" width="550" height="550" as="geometry" />
        </mxCell>
      </root>
    </mxGraphModel>
  </diagram>
</mxfile>
